<?xml version="1.0" encoding="UTF-8" standalone="no"?>
<svg
   xmlns:dc="http://purl.org/dc/elements/1.1/"
   xmlns:cc="http://creativecommons.org/ns#"
   xmlns:rdf="http://www.w3.org/1999/02/22-rdf-syntax-ns#"
   xmlns:svg="http://www.w3.org/2000/svg"
   xmlns="http://www.w3.org/2000/svg"
   xmlns:sodipodi="http://sodipodi.sourceforge.net/DTD/sodipodi-0.dtd"
   xmlns:inkscape="http://www.inkscape.org/namespaces/inkscape"
   inkscape:version="1.0 (4035a4fb49, 2020-05-01)"
   sodipodi:docname="previous2.svg"
   xml:space="preserve"
   style="enable-background:new 0 0 489.6 489.6;"
   viewBox="0 0 489.6 489.6"
   y="0px"
   x="0px"
   id="Layer_1"
   version="1.1"><metadata
   id="metadata45"><rdf:RDF><cc:Work
       rdf:about=""><dc:format>image/svg+xml</dc:format><dc:type
         rdf:resource="http://purl.org/dc/dcmitype/StillImage" /><dc:title></dc:title></cc:Work></rdf:RDF></metadata><defs
   id="defs43" /><sodipodi:namedview
   inkscape:current-layer="Layer_1"
   inkscape:window-maximized="1"
   inkscape:window-y="-9"
   inkscape:window-x="-9"
   inkscape:cy="126.84551"
   inkscape:cx="-5.0893212"
   inkscape:zoom="1.0615267"
   showgrid="false"
   id="namedview41"
   inkscape:window-height="1171"
   inkscape:window-width="1920"
   inkscape:pageshadow="2"
   inkscape:pageopacity="0"
   guidetolerance="10"
   gridtolerance="10"
   objecttolerance="10"
   borderopacity="1"
   bordercolor="#666666"
   pagecolor="#ffffff"
   inkscape:document-rotation="0"
   inkscape:pagecheckerboard="true"
   inkscape:snap-page="true" />
<g
   inkscape:label="Layer 1"
   id="layer1"
   inkscape:groupmode="layer"
   style="display:inline" />
<g
   id="g10">
</g>
<g
   id="g12">
</g>
<g
   id="g14">
</g>
<g
   id="g16">
</g>
<g
   id="g18">
</g>
<g
   id="g20">
</g>
<g
   id="g22">
</g>
<g
   id="g24">
</g>
<g
   id="g26">
</g>
<g
   id="g28">
</g>
<g
   id="g30">
</g>
<g
   id="g32">
</g>
<g
   id="g34">
</g>
<g
   id="g36">
</g>
<g
   inkscape:groupmode="layer"
   id="layer2"
   inkscape:label="Layer 2" /><g
   id="g38">
</g>
<g
   transform="translate(7.5363152,1.8840788)"
   id="g929"><path
     id="rect860"
     style="fill:#ffffff;fill-opacity:1;stroke-width:1.101;stroke-miterlimit:4;stroke-dasharray:none"
     d="m 254.66673,12.32644 c -8.99518,0 -17.99024,3.447274 -24.88281,10.339844 l -36.89844,36.898437 c -1.19076,1.715104 -2.54156,3.354069 -4.07226,4.884766 L 28.748758,224.51199 c -0.48078,0.33979 -0.95651,0.68991 -1.42382,1.05664 -8.1687,11.9889 -8.10581,27.81996 0.18359,39.75195 L 188.62962,426.43972 c 1.5307,1.5307 2.88151,3.16966 4.07227,4.88477 l 36.89844,36.89844 c 6.89257,6.89257 15.88763,10.33984 24.88281,10.33984 7.6535,0 15.30179,-2.50414 21.66015,-7.49414 8.16805,-11.98796 8.1058,-27.81833 -0.18164,-39.75 L 114.83861,270.19753 c -1.52986,-1.52985 -2.88003,-3.16874 -4.07032,-4.88281 L 90.988998,245.53738 110.95189,225.57449 c 1.19029,-1.71407 2.54045,-3.35295 4.07031,-4.88281 L 276.14525,59.570581 c 8.28744,-11.931674 8.34969,-27.762044 0.18164,-39.75 -6.35836,-4.990002 -14.00666,-7.494142 -21.66016,-7.494141 z" /><path
     d="m 425.96034,13.696158 c -8.99518,0 -17.99024,3.44727 -24.88281,10.33984 l -36.89844,36.89844 c -1.19076,1.7151 -2.54156,3.35407 -4.07226,4.88477 L 200.04236,225.88171 c -0.48078,0.33979 -0.95651,0.68991 -1.42382,1.05664 -8.1687,11.9889 -8.10581,27.81996 0.18359,39.75195 l 161.1211,161.11914 c 1.5307,1.5307 2.88151,3.16966 4.07227,4.88477 l 36.89844,36.89844 c 6.89257,6.89257 15.88763,10.33984 24.88281,10.33984 7.6535,0 15.30179,-2.50414 21.66015,-7.49414 8.16805,-11.98796 8.1058,-27.81833 -0.18164,-39.75 L 286.13222,271.56725 c -1.52986,-1.52985 -2.88003,-3.16874 -4.07032,-4.88281 L 262.28261,246.9071 282.2455,226.94421 c 1.19029,-1.71407 2.54045,-3.35295 4.07031,-4.88281 L 447.43886,60.940298 c 8.28744,-11.93167 8.34969,-27.76204 0.18164,-39.75 -6.35836,-4.99 -14.00666,-7.49414 -21.66016,-7.49414 z"
     style="fill:#ffffff;fill-opacity:1;stroke-width:1.101;stroke-miterlimit:4;stroke-dasharray:none"
     id="rect860-7" /></g></svg>
