<svg xmlns="http://www.w3.org/2000/svg" viewBox="0 0 487.97 621.99"><defs><style>.cls-1{fill:#1c2a78;}</style></defs><g id="レイヤー_2" data-name="レイヤー 2"><g id="レイヤー_1-2" data-name="レイヤー 1"><path class="cls-1" d="M229.09.1c-33.83,2.71-63.91,12.45-87.51,28.38C118.52,44,103.86,64.63,100,86.62c-.61,3.49-.77,43-.61,138l.23,133,1.68,5.41c9.16,29.37,33.52,52.73,70.1,67.14,54.29,21.5,125.47,16,171.28-13.23,22.91-14.56,36.74-31.48,43.91-53.91,1.61-4.91,1.61-5.45,1.84-138.94.23-119.67.15-134.62-.92-139.69C378.54,42.16,332,9.25,270,1.28,263.38.4,258.27.15,246.66.05,238.49,0,230.54,0,229.09.1Z"/><path class="cls-1" d="M2.44,283C.23,284,0,287.44,0,318c0,42.3,1,52.48,6.41,67.73,16.5,46,66.59,85,134.79,104.91,17.94,5.21,43.07,10.18,60.25,11.9l6.26.59v51H87.06V622H400.91V554.12H280.26v-51l6.34-.59c3.43-.34,11.15-1.38,17-2.31,88.73-14,157.84-58.43,177.93-114.5C487,370.51,488,360.33,488,318c0-30.59-.23-34.08-2.44-35-.54-.2-17-.39-36.66-.39H413.13l-1.07,1.08c-1,1-1.14,6.89-1.45,39.74-.3,41.76-.3,41.86-4.73,53.17-14,35.41-57.73,64-113.79,74.37-35.73,6.59-75.67,5.55-109.58-2.86C132.19,435.63,94.84,409,82.09,376.61c-4.43-11.31-4.43-11.41-4.73-53.17-.31-32.85-.46-38.76-1.45-39.74l-1.07-1.08H39.1C19.47,282.62,3,282.81,2.44,283Z"/></g></g></svg>